<svg width="11" height="12" viewBox="0 0 11 12" fill="none" xmlns="http://www.w3.org/2000/svg">
<g clip-path="url(#clip0_163_544)">
<path d="M8.22356 5.61256C8.41531 5.66886 8.59788 5.74527 8.77127 5.84179C8.94465 5.9383 9.1262 6.08508 9.31591 6.28213C9.50561 6.47918 9.66778 6.71142 9.80241 6.97884C9.93704 7.24627 10.0492 7.59211 10.139 8.01637C10.2287 8.44063 10.2736 8.91617 10.2736 9.44298C10.2736 10.0623 10.0696 10.5921 9.66166 11.0324C9.25369 11.4728 8.76209 11.693 8.18685 11.693H2.96074C2.3855 11.693 1.89389 11.4728 1.48592 11.0324C1.07795 10.5921 0.873962 10.0623 0.873962 9.44298C0.873962 8.91617 0.918839 8.44063 1.00859 8.01637C1.09835 7.59211 1.21054 7.24627 1.34517 6.97884C1.4798 6.71142 1.64197 6.47918 1.83167 6.28213C2.02138 6.08508 2.20293 5.9383 2.37632 5.84179C2.5497 5.74527 2.73227 5.66886 2.92402 5.61256C2.60172 5.10989 2.44057 4.56297 2.44057 3.97182C2.44057 3.55359 2.52319 3.15446 2.68841 2.77444C2.85364 2.39441 3.07701 2.06566 3.35851 1.78818C3.64001 1.5107 3.97352 1.29053 4.35906 1.12766C4.74459 0.964796 5.1495 0.883362 5.57379 0.883362C5.99808 0.883362 6.40299 0.964796 6.78853 1.12766C7.17406 1.29053 7.50757 1.5107 7.78907 1.78818C8.07057 2.06566 8.29394 2.39441 8.45917 2.77444C8.6244 3.15446 8.70701 3.55359 8.70701 3.97182C8.70701 4.56297 8.54586 5.10989 8.22356 5.61256ZM5.57379 1.65548C4.92512 1.65548 4.3713 1.88168 3.91233 2.33409C3.45336 2.7865 3.22388 3.33241 3.22388 3.97182C3.22388 4.61123 3.45336 5.15714 3.91233 5.60955C4.3713 6.06196 4.92512 6.28816 5.57379 6.28816C6.22247 6.28816 6.77629 6.06196 7.23525 5.60955C7.69422 5.15714 7.92371 4.61123 7.92371 3.97182C7.92371 3.33241 7.69422 2.7865 7.23525 2.33409C6.77629 1.88168 6.22247 1.65548 5.57379 1.65548ZM8.18685 10.9209C8.54586 10.9209 8.85286 10.7771 9.10784 10.4896C9.36282 10.202 9.49031 9.85316 9.49031 9.44298C9.49031 8.48185 9.33019 7.72381 9.00993 7.16886C8.68967 6.6139 8.22968 6.32235 7.62997 6.2942C7.03841 6.80492 6.35302 7.06028 5.57379 7.06028C4.79457 7.06028 4.10917 6.80492 3.51762 6.2942C2.9179 6.32235 2.45791 6.6139 2.13765 7.16886C1.8174 7.72381 1.65727 8.48185 1.65727 9.44298C1.65727 9.85316 1.78476 10.202 2.03974 10.4896C2.29472 10.7771 2.60172 10.9209 2.96074 10.9209H8.18685Z" fill="black"/>
</g>
<defs>
<clipPath id="clip0_163_544">
<rect width="9.39966" height="10.8096" fill="white" transform="translate(0.873962 0.883362)"/>
</clipPath>
</defs>
</svg>
