<svg width="89" height="36" viewBox="0 0 89 36" fill="none" xmlns="http://www.w3.org/2000/svg">
<path d="M1.22943 12.6462V11.2084H11.2683V12.6462H7.05927V24.5935H5.43842V12.6462H1.22943ZM13.7698 24.5935V11.2084H18.2925C19.3382 11.2084 20.1966 11.387 20.8676 11.7443C21.5386 12.0972 22.0353 12.5831 22.3577 13.2018C22.6801 13.8205 22.8414 14.5242 22.8414 15.3128C22.8414 16.1015 22.6801 16.8008 22.3577 17.4108C22.0353 18.0208 21.5407 18.5001 20.8741 18.8486C20.2075 19.1928 19.3556 19.3649 18.3186 19.3649H14.6587V17.901H18.2664C18.9809 17.901 19.5561 17.7964 19.9918 17.5872C20.4319 17.3781 20.7499 17.0818 20.946 16.6984C21.1464 16.3106 21.2466 15.8487 21.2466 15.3128C21.2466 14.7769 21.1464 14.3085 20.946 13.9076C20.7456 13.5068 20.4253 13.1974 19.9853 12.9796C19.5452 12.7574 18.9635 12.6462 18.2402 12.6462H15.3907V24.5935H13.7698ZM20.0702 18.5807L23.3642 24.5935H21.4819L18.2402 18.5807H20.0702ZM34.3262 11.2084H35.9471V20.0708C35.9471 20.9858 35.7314 21.8028 35.3 22.5217C34.873 23.2363 34.2696 23.8005 33.4896 24.2144C32.7097 24.624 31.7947 24.8288 30.7446 24.8288C29.6946 24.8288 28.7796 24.624 27.9997 24.2144C27.2197 23.8005 26.6141 23.2363 26.1827 22.5217C25.7557 21.8028 25.5422 20.9858 25.5422 20.0708V11.2084H27.1631V19.9401C27.1631 20.5937 27.3069 21.1753 27.5944 21.6851C27.882 22.1905 28.2916 22.5892 28.8232 22.8812C29.3591 23.1687 29.9996 23.3125 30.7446 23.3125C31.4897 23.3125 32.1302 23.1687 32.6661 22.8812C33.2021 22.5892 33.6116 22.1905 33.8949 21.6851C34.1824 21.1753 34.3262 20.5937 34.3262 19.9401V11.2084ZM39.1839 24.5935V11.2084H47.262V12.6462H40.8047V17.169H46.8437V18.6068H40.8047V23.1557H47.3666V24.5935H39.1839ZM49.5756 24.5935V11.2084H55.1571C56.1593 11.2084 56.998 11.35 57.6734 11.6332C58.3531 11.9164 58.8629 12.3129 59.2027 12.8227C59.5469 13.3325 59.719 13.9229 59.719 14.5939C59.719 15.1037 59.6123 15.559 59.3988 15.9598C59.1853 16.3563 58.8912 16.6853 58.5165 16.9467C58.1418 17.2082 57.7082 17.3912 57.2159 17.4957V17.6265C57.7561 17.6526 58.255 17.7986 58.7125 18.0643C59.1744 18.3301 59.5447 18.7005 59.8236 19.1754C60.1025 19.646 60.2419 20.2037 60.2419 20.8486C60.2419 21.5675 60.0589 22.2102 59.6929 22.7766C59.3269 23.3387 58.7975 23.7831 58.1047 24.1099C57.4119 24.4323 56.571 24.5935 55.5819 24.5935H49.5756ZM52.8108 21.9858H54.8107C55.5122 21.9858 56.0285 21.8529 56.3597 21.5871C56.6952 21.3213 56.8629 20.9509 56.8629 20.476C56.8629 20.1318 56.7823 19.8355 56.6211 19.5872C56.4599 19.3344 56.2311 19.1406 55.9349 19.0055C55.6386 18.8661 55.2835 18.7963 54.8695 18.7963H52.8108V21.9858ZM52.8108 16.7115H54.6016C54.9545 16.7115 55.2682 16.6526 55.5427 16.535C55.8172 16.4173 56.0307 16.2474 56.1832 16.0252C56.3401 15.803 56.4185 15.535 56.4185 15.2213C56.4185 14.7725 56.2595 14.4196 55.9414 14.1625C55.6233 13.9055 55.1942 13.7769 54.6539 13.7769H52.8108V16.7115ZM69.8951 11.2084H73.1238V19.8421C73.1238 20.8398 72.8863 21.7091 72.4114 22.4498C71.9364 23.1862 71.2741 23.7569 70.4245 24.1621C69.5749 24.563 68.588 24.7634 67.4638 24.7634C66.3266 24.7634 65.3332 24.563 64.4836 24.1621C63.6339 23.7569 62.9738 23.1862 62.5032 22.4498C62.0327 21.7091 61.7974 20.8398 61.7974 19.8421V11.2084H65.0326V19.561C65.0326 20.0229 65.1328 20.4346 65.3332 20.7963C65.538 21.1579 65.8234 21.4411 66.1894 21.6459C66.5554 21.8507 66.9802 21.9531 67.4638 21.9531C67.9475 21.9531 68.3701 21.8507 68.7318 21.6459C69.0978 21.4411 69.3832 21.1579 69.5879 20.7963C69.7927 20.4346 69.8951 20.0229 69.8951 19.561V11.2084ZM74.4848 11.2084H78.0991L80.929 16.8095H81.0467L83.8766 11.2084H87.4909L82.5956 20.1231V24.5935H79.3801V20.1231L74.4848 11.2084Z" fill="#2D2D1F"/>
<rect x="0.840576" y="0.513733" width="87" height="34.1595" stroke="black"/>
</svg>
